<?xml version="1.0" encoding="utf-8"?>
<!-- Generator: Adobe Illustrator 24.0.1, SVG Export Plug-In . SVG Version: 6.00 Build 0)  -->
<svg version="1.1" xmlns="http://www.w3.org/2000/svg" xmlns:xlink="http://www.w3.org/1999/xlink" x="0px" y="0px"
	 viewBox="0 0 191 73" style="enable-background:new 0 0 191 73;" xml:space="preserve">
<style type="text/css">
	.st0{fill:#C46550;}
	.st1{fill:#7BA96A;}
	.st2{fill:#BAC983;}
	.st3{fill:#FF9F8A;}
</style>
<g id="objects">
	<path class="st0" d="M44.1,15.4c2-0.5,7.9-5.9,3.6-7.1c-2.8-0.8-4.7,1.9-6.4,3.9c-0.2-1.9-1.8-4.3-3.4-5.3
		c-2.7-1.6-3.7,0.9-4.4,3.1c0,0.1,0,0.1,0,0c-1.9-2.3-6.4-2.7-6.5,1c-0.2,7,13.2,4.4,17.2,4.4"/>
	<path class="st1" d="M7.7,28.2c3.6-5.1,9,2.2,12.5,8.4c1.3-25.2,20.9-20.3,20.9-20.3c22.8,7.6-4.3,60.2-4.3,60.2
		c-6.7,3.3-14.6-0.3-14.6-0.3l-1.6-26.1l-3.6-3.4C17.1,46.7,1.9,36.4,7.7,28.2z"/>
	<g>
		<path class="st2" d="M6.7,30.3c0.7,0.8,1.3,1.6,2,2.4c0-0.4-0.1-0.8-0.2-1.1c-0.2-0.6,0.7-0.9,0.9-0.3C9.6,32,9.6,33,9.6,33.8
			c1.4,1.7,2.9,3.3,4.4,4.9l0,0c1.1,1.1,2.1,2.3,3.2,3.4c-0.3-1-0.7-2-1.2-3c-0.3-0.5,0.5-1,0.8-0.5c0.7,1.4,1.2,2.8,1.6,4.4
			c0,0.1,0,0.2,0,0.2c0.6,0.6,1.1,1.1,1.7,1.7c-0.1-1.4-0.2-2.8-0.2-4.2c-0.1,0-0.1-0.1-0.2-0.1c-1.3-2-2.6-3.8-4.1-5.6
			c-0.1-0.1-0.1-0.1-0.2-0.2c-2.1-2.6-4.5-5.1-6.9-7.5c0.3-0.2,0.5-0.4,0.8-0.5c2.2,2.2,4.3,4.5,6.3,6.9c0.1-0.9-0.3-1.7-0.8-2.4
			c-0.3-0.5,0.4-0.9,0.8-0.5c0.8,1.2,1.2,2.4,0.7,3.7c1.2,1.5,2.3,3,3.4,4.6c-0.1-1.1-0.1-2.2-0.1-3.2c0,0,0,0,0-0.1
			c0.2,0.3,0.3,0.6,0.5,0.9c0-0.4,0.1-0.8,0.1-1.2c0.2,0.1,0.3,0.2,0.3,0.4c0,5.3,1,10.8,0.2,16.1l-0.1-1.8l-0.6-0.5
			c0.1-1.4,0.1-2.7,0-4.1c-0.2,0.2-0.4,0.3-0.7,0.1c-2-1.9-4-3.9-5.9-6c-0.7,0-2.3-0.2-3-0.7c-0.5-0.3,0-1.1,0.5-0.8
			c0.5,0.3,1,0.4,1.6,0.5c-1.1-1.2-3.4-3.7-4.5-5c-0.3,0.2,0.5,1.2,0.5,0.6c0,0,0-0.1,0-0.2c-0.8-0.9-1.5-1.8-2.3-2.7
			C6.5,31,6.5,30.6,6.7,30.3z"/>
		<path class="st2" d="M25.5,55.8c-1-1.9-2.2-3.7-3.3-5.5c-0.3-0.5,0.5-0.9,0.8-0.5c1,1.5,2,3,2.9,4.6c-0.1-2.7-0.1-5.4,0-8.1
			c0.2-4.1,0.9-8.2,1.9-12.3c-0.1,0-0.1-0.1-0.2-0.2c-0.5-1.4-1-2.9-1.8-4.1c-0.3-0.5,0.5-1,0.8-0.5c0.6,1,1.1,2.2,1.5,3.4
			c0.8-3.1,1.7-6.2,2.8-9.2c-0.6-1.1-1.1-2.3-1.7-3.4c-0.3-0.5,0.5-1,0.8-0.5c0.4,0.9,0.9,1.8,1.3,2.7c0.6-1.9,1.3-3.8,2-5.7
			c0.4-0.1,0.7-0.1,1-0.2C31.2,25.2,28,34.5,27,44c0.2-0.5,0.4-1,0.7-1.4c0.3-0.5,1-0.1,0.8,0.5c-0.5,1-0.9,2.1-1.5,3
			c0,0.1-0.1,0.1-0.1,0.1c0,0.6-0.1,1.2-0.1,1.8c-0.2,5.1,0.2,10.4,0.5,15.5c0.1-0.9,0.1-1.5,0.1-2.5c0-1,0.9-1,0.9,0
			c0,2,0,2.9-0.7,4.3c-0.1,0.1-0.1,0.1-0.2,0.1c0.2,4.1,0.4,8.1,0.2,12.2c-0.3,0-0.6-0.1-0.9-0.2c0.1-2.2,0.1-4.4,0.1-6.7
			c-0.1,0-0.2-0.1-0.3-0.3c-0.3-1.4-0.9-2.7-1.8-3.8c-0.3-0.5,0.4-0.9,0.8-0.5c0.5,0.6,0.9,1.3,1.2,2c-0.2-4.1-0.5-8.2-0.7-12.3
			C25.7,56,25.6,55.9,25.5,55.8z"/>
		<path class="st2" d="M35.7,70.9c-0.2-1.4-0.6-2.7-1.4-3.9c-0.3-0.5,0.5-1,0.8-0.5c0.4,0.6,0.7,1.3,1,2c0.3-2,0.6-4,1-5.9
			c1.2-7.1,3.5-13.9,4.4-21.1c0.4-3.5,1.1-6.9,1.6-10.4c-0.1,0-0.2-0.1-0.2-0.2c-0.6-1.2-1.1-2.5-1.8-3.6c-0.3-0.5,0.5-1,0.8-0.5
			c0.6,0.9,1,1.9,1.5,2.9c0.1-0.6,0.1-1.2,0.2-1.8c0.3-3.8,0.2-8.3-2.2-11.4c0.6,0.2,1.1,0.4,1.6,0.7c1.1,1.8,1.6,3.9,1.7,6.1
			c0.6-0.7,1-1.5,1.3-2.4c0.2-0.6,1-0.3,0.9,0.2c-0.3,1.1-0.8,2.1-1.6,2.9c-0.1,0.1-0.3,0.2-0.5,0.1c0.2,5.1-1.2,10.7-1.9,14.9
			c-0.3,1.7-0.5,3.3-0.7,5c0.8-0.9,1.5-1.9,2.1-2.9c0.3-0.5,1.1-0.1,0.8,0.5c-0.6,1.3-1.5,2.4-2.5,3.4c-0.2,0.2-0.4,0.2-0.5,0.1
			c-0.2,1-0.3,2-0.5,3.1c-0.7,3.5-1.7,6.9-2.5,10.4c1.3-0.7,2.4-1.5,3.6-2.4c0.5-0.4,0.9,0.4,0.5,0.8c-1.2,0.9-2.3,1.8-3.6,2.4
			c-0.2,0.1-0.4,0-0.6-0.1c0,0.1-0.1,0.3-0.1,0.4c-0.8,3.7-1.4,7.5-1.9,11.2c0.1,0.5,0.1,1,0.1,1.5c0,0.3-0.2,0.4-0.4,0.4
			c-0.2,1.5-0.5,2.9-0.8,4.4c-0.3,0.1-0.7,0.2-1,0.3C35,75.2,35.3,73.1,35.7,70.9z"/>
		<path class="st2" d="M32.4,49.9c0.1-0.5,0.2-1.1,0.3-1.6c-0.2,0-0.4-0.2-0.4-0.4c0-1.7-0.3-3.4-0.6-5c-0.1-0.6,0.8-0.8,0.9-0.2
			c0.2,1.2,0.4,2.5,0.5,3.7c1.1-4.8,2.5-9.6,3.3-14.5c0.2-1.5,0.3-3,0.4-4.5c-0.8-1.5-1.6-3-2.6-4.4c-0.3-0.5,0.4-0.9,0.8-0.5
			c0.7,1,1.3,2,1.9,3c0.1-3.2,0.2-6.4,0.7-9.6c0.3,0,0.6,0,0.9,0c-0.6,3.6-0.6,7.4-0.8,11.1c0.1,0.1,0,0.3,0,0.4
			c-0.1,1.2-0.1,2.4-0.3,3.6c-0.1,0.8-0.2,1.6-0.4,2.5c0.6-0.8,1.1-1.7,1.3-2.7c0.2-0.6,1-0.3,0.9,0.2c-0.4,1.3-1,2.5-1.9,3.5
			c-0.2,0.2-0.3,0.2-0.5,0.1c-0.8,4.7-2.1,9.3-3.2,13.9c-0.3,1.4-0.6,2.7-0.9,4.1c0.8-0.9,1.6-1.7,2.6-2.4c0.5-0.4,0.9,0.4,0.5,0.8
			c-1.2,0.9-2.3,2-3.2,3.2c0,0.1-0.1,0.1-0.2,0.1c-1.3,7.7-1.6,15.7-1.9,23.5c-0.3,0-0.6,0-0.9,0C30.2,68.5,30.6,59.2,32.4,49.9z"/>
	</g>
	<g>
		<path class="st3" d="M23.7,13.3c0.7,3,3.5,3.2,5.9,4.4c1.7,0.8,3.1,0.7,4.9,0.9c2,0.2,4,0.3,6,0.2c3.7-0.1,7.5-1.4,9.5-4.7
			c2.3-3.8-4.6-2.1-6.2-1.4c-0.7-2.1,0.4-6.3-3.2-6.6c-2.9-0.3-2.8,3.6-3.4,5.4c-0.8-2.1-4.9-5.5-7.3-4.6c-2,0.7-1.8,3-1.1,4.5
			c-1.5-1.4-4.7-2.3-5.1,0.3C23.5,12.2,23.6,12.8,23.7,13.3z"/>
	</g>
	<g>
		<path class="st1" d="M72.4,40.3c-0.7-0.5-1.5-1-2.5-1.3c-0.4-0.1-0.7-0.2-1.1-0.3c0.2-0.1,0.4-0.2,0.6-0.3
			c0.8-0.4,1.5-0.9,2.1-1.4c0.6-0.6,1.1-1.2,1.4-2c0.4-0.8,0.5-1.7,0.5-2.6c0-0.7-0.1-1.3-0.3-1.9c-0.2-0.5-0.5-1-0.9-1.4
			c-0.4-0.4-0.8-0.7-1.3-1c-0.5-0.3-1-0.5-1.6-0.6c-0.6-0.2-1.1-0.3-1.8-0.3c-1.3-0.1-2.8-0.1-4.3,0c-0.8,0.1-1.6,0.2-2.4,0.3
			c-0.8,0.1-1.6,0.2-2.4,0.4c-0.8,0.1-1.5,0.3-2.1,0.4L56,28.3l0.2,1.9l0.5-0.1c1.2-0.2,2-0.2,2.4-0.1c0.1,0,0.2,0.1,0.3,0.2
			c0.1,0.1,0.1,0.2,0.1,0.3c0,0.2,0.1,0.4,0.1,0.6c0,1.2,0,2.4,0,3.6c0,1.2,0,2.5-0.1,3.8c0,1.3-0.1,2.5-0.1,3.7
			c0,1.2-0.1,2.4-0.1,3.6c-0.1,1.2-0.1,2.3-0.2,3.4c-0.1,1.1-0.2,2.1-0.2,3l0,0.5l0.7,0.1l2-0.2c0.6,0.1,1.2,0.2,1.8,0.3
			c0.6,0.1,1.2,0.1,1.8,0.1c0.8,0,1.5-0.1,2.3-0.2c0.8-0.1,1.5-0.3,2.2-0.6c0.7-0.3,1.4-0.6,2-1c0.6-0.4,1.1-0.9,1.6-1.5
			c0.4-0.6,0.8-1.2,1.1-2c0.3-0.7,0.4-1.6,0.4-2.5c0-1.1-0.2-2.1-0.6-2.9C73.7,41.5,73.1,40.9,72.4,40.3z M62.8,47.3
			c0-0.7,0.1-1.4,0.1-2.1l0.1-2c0-0.7,0.1-1.3,0.1-1.9l0-1.1c0.1,0,0.2,0,0.3,0c1.4-0.1,2.6,0.1,3.6,0.3c0.8,0.2,1.5,0.5,2.1,1
			c0.5,0.4,1,1,1.3,1.6c0.3,0.6,0.4,1.4,0.4,2.3c0,0.9-0.1,1.7-0.4,2.4c-0.3,0.6-0.7,1.2-1.2,1.6c-0.5,0.4-1.1,0.7-1.8,0.9
			c-1.1,0.3-2.5,0.4-3.7,0.2c-0.3,0-0.7-0.1-1-0.2c0-0.4,0.1-0.8,0.1-1.2L62.8,47.3z M64.4,38c-0.4,0.1-0.8,0.1-1.2,0.1l0.2-7.5
			c0-0.5,0-0.9,0-1.3c0.2,0,0.4,0,0.6-0.1c1-0.1,2,0,2.8,0.2c0.5,0.1,1,0.3,1.4,0.6c0.4,0.3,0.7,0.7,0.9,1.2
			c0.2,0.5,0.3,1.1,0.3,1.8c0,0.6-0.1,1.2-0.3,1.7c-0.2,0.5-0.4,0.9-0.7,1.3c-0.3,0.4-0.7,0.7-1.1,0.9c-0.4,0.3-0.9,0.5-1.4,0.6
			C65.5,37.8,65,37.9,64.4,38z"/>
		<path class="st1" d="M88.5,38.6L88.5,38.6c-0.5-0.7-1.2-1.2-1.9-1.6c-1.4-0.8-3.5-0.8-5.1-0.2c-0.7,0.3-1.4,0.7-2,1.1
			c-0.6,0.5-1.1,1-1.6,1.7c-0.4,0.6-0.8,1.3-1.1,2c-0.3,0.7-0.5,1.5-0.7,2.2c-0.2,0.8-0.2,1.5-0.2,2.3c0,0.9,0.1,1.8,0.4,2.6
			c0.3,0.8,0.6,1.6,1.1,2.3c0.5,0.7,1.2,1.2,1.9,1.6c0.8,0.4,1.7,0.6,2.6,0.6c0.9,0,1.7-0.1,2.4-0.4c0.7-0.3,1.4-0.7,2-1.1
			c0.6-0.5,1.1-1,1.6-1.7c0.4-0.6,0.8-1.3,1.1-2c0.3-0.7,0.5-1.5,0.7-2.2c0.2-0.8,0.2-1.5,0.2-2.3c0-0.9-0.1-1.8-0.4-2.6
			C89.4,40,89,39.2,88.5,38.6z M86.5,44.4c0,0.4,0,0.8-0.1,1.3c0,0.5-0.1,1-0.2,1.4c-0.1,0.5-0.2,0.9-0.4,1.4
			c-0.2,0.4-0.4,0.8-0.6,1.1c-0.2,0.3-0.5,0.6-0.9,0.8c-0.6,0.3-1.5,0.3-2.2,0.1c-0.3-0.1-0.6-0.3-0.9-0.6c-0.3-0.3-0.5-0.6-0.7-0.9
			c-0.2-0.4-0.4-0.8-0.5-1.2c-0.1-0.4-0.3-0.9-0.3-1.3c-0.1-0.5-0.1-0.9-0.1-1.4c0-0.4,0-0.8,0.1-1.3c0-0.5,0.1-1,0.2-1.4
			c0.1-0.5,0.3-0.9,0.4-1.4c0.2-0.4,0.4-0.8,0.6-1.1c0.2-0.3,0.5-0.6,0.9-0.7c0.3-0.2,0.7-0.3,1.1-0.3c0.4,0,0.8,0.1,1.1,0.2
			c0.3,0.1,0.6,0.3,0.9,0.6c0.3,0.3,0.5,0.6,0.7,0.9c0.2,0.4,0.4,0.8,0.5,1.2c0.1,0.4,0.3,0.9,0.3,1.3C86.5,43.5,86.5,44,86.5,44.4z
			"/>
		<path class="st1" d="M116.9,50.3c-1.2,0.7-2.1,0.7-2.6,0c-0.3-0.4-0.5-1.1-0.5-2c0-0.6,0-1.3,0.1-1.9c0-0.6,0.1-1.3,0.1-1.9
			c0-0.6,0.1-1.2,0.1-1.8c0-0.6,0.1-1.1,0.1-1.6c0-0.7-0.1-1.4-0.2-2c-0.2-0.6-0.4-1.1-0.8-1.6c-0.4-0.4-0.9-0.8-1.5-1
			c-0.9-0.3-2.1-0.5-3.5-0.2c-0.5,0.1-1,0.2-1.5,0.4c-0.5,0.2-1,0.4-1.4,0.6c-0.5,0.3-0.9,0.6-1.3,0.9c-0.4,0.3-0.7,0.7-0.9,1.1
			c-0.2,0.4-0.4,0.9-0.4,1.4c0,0.3,0.1,0.6,0.2,0.9c0.1,0.3,0.3,0.5,0.5,0.7c0.2,0.2,0.4,0.3,0.7,0.4c0.7,0.2,1.5,0.2,2.3-0.2
			l0.2-0.1l0.2-0.6l-0.2-0.2c-0.2-0.3-0.4-0.6-0.5-0.9c-0.1-0.3-0.2-0.6-0.2-0.9c0-0.2,0-0.4,0.1-0.6c0.1-0.2,0.2-0.3,0.3-0.4
			c0.2-0.1,0.4-0.3,0.7-0.3c0.5-0.2,1.3-0.2,2.1,0c0.3,0.1,0.6,0.3,0.8,0.5c0.2,0.2,0.4,0.5,0.6,0.8c0.2,0.3,0.2,0.8,0.2,1.2
			c0,0.5,0,0.9,0,1.3c0,0.3,0,0.6-0.1,0.8c-0.6,0-1.3,0.1-1.9,0.1c-0.8,0.1-1.5,0.2-2.2,0.5c-0.7,0.2-1.3,0.5-1.9,0.8
			c-0.6,0.3-1.1,0.7-1.6,1.1c-0.4,0.4-0.8,1-1.1,1.5c-0.3,0.6-0.4,1.2-0.4,1.9c0,0.2,0,0.5,0.1,0.7c-0.1-0.1-0.1-0.2-0.2-0.3
			l-0.3-0.3l-0.3,0.2c-0.6,0.3-1.1,0.5-1.5,0.6c-1,0.3-1.7,0.2-2.2-0.1c-0.3-0.2-0.5-0.4-0.6-0.7c-0.2-0.4-0.3-0.8-0.4-1.4
			c-0.1-0.6-0.1-1.2-0.1-2c0-0.4,0-0.9,0-1.4c0-0.5,0-1.1,0.1-1.8c0-0.6,0.1-1.3,0.1-2c0-0.6,0.1-1.1,0.1-1.7c0.5,0,1,0.1,1.4,0.1
			c1.3,0.1,2.3,0.1,2.9-0.1c0.5-0.2,0.7-0.6,0.7-1.1c0-0.1,0-0.2,0-0.4c0-0.1-0.1-0.2-0.1-0.4l-0.1-0.4l-0.4,0.1
			c-0.4,0.1-0.9,0.1-1.5,0.1h-0.6c-0.2,0-0.5,0-0.7,0l-0.9,0c-0.1,0-0.3,0-0.4,0c0.1-1.2,0.3-2.4,0.5-3.7c0.2-1.4,0.4-2.8,0.7-4.1
			L98,29l-0.3-0.2c-0.2-0.1-0.4-0.2-0.6-0.3c-0.4-0.1-0.8-0.1-1.3,0c-0.2,0-0.4,0.1-0.6,0.2c-0.2,0.1-0.3,0.2-0.5,0.4
			c-0.1,0.2-0.2,0.4-0.3,0.7c-0.2,1-0.4,2.2-0.6,3.5c-0.2,1.2-0.3,2.5-0.5,3.8c-0.3,0-0.6,0.1-0.8,0.1c-0.4,0.1-0.7,0.2-1,0.3
			c-0.3,0.1-0.6,0.3-0.7,0.4c-0.3,0.3-0.4,0.6-0.4,0.8c0,0.1,0,0.3,0.1,0.4l0.2,0.4l0.4-0.1c0.3-0.1,0.7-0.1,1.1-0.2
			c0.3,0,0.6,0,1-0.1c0,0.5-0.1,1-0.1,1.5c-0.1,0.7-0.1,1.4-0.1,2.1c0,0.7-0.1,1.4-0.1,2.1c0,0.7,0,1.4,0,2c0,1.2,0.1,2.2,0.2,2.9
			c0.2,0.8,0.4,1.5,0.7,2c0.3,0.5,0.8,0.9,1.2,1.1c0.5,0.2,1,0.3,1.5,0.3c0.4,0,0.8-0.1,1.3-0.2c0.4-0.1,0.9-0.2,1.3-0.4
			c0.4-0.2,0.9-0.4,1.4-0.6c0.5-0.2,0.9-0.5,1.4-0.8L102,51l0,0c0.2,0.4,0.4,0.8,0.7,1.1c0.3,0.3,0.7,0.6,1.2,0.8
			c0.5,0.2,1,0.3,1.5,0.3c0.7,0,1.3-0.2,1.9-0.5c0.6-0.3,1.1-0.7,1.6-1.2c0.5-0.5,1-1,1.4-1.7c0.1-0.1,0.1-0.2,0.2-0.2
			c0,0.4,0.1,0.7,0.2,1.1c0.2,0.5,0.4,1,0.8,1.3c0.3,0.4,0.7,0.6,1.2,0.8c1,0.4,2.3,0.3,3.4-0.1c0.6-0.3,1.2-0.7,1.7-1.2l0.3-0.3
			l-0.8-1.2L116.9,50.3z M108.1,49.4c-0.3,0.2-0.6,0.4-0.9,0.5c-0.5,0.2-1,0.2-1.3,0.1c-0.1-0.1-0.2-0.2-0.3-0.3
			c-0.1-0.1-0.2-0.3-0.2-0.5c-0.1-0.2-0.1-0.4-0.1-0.7c0-0.4,0.1-0.8,0.2-1.1c0.1-0.3,0.3-0.6,0.6-0.8c0.2-0.2,0.5-0.4,0.9-0.6
			c0.4-0.2,0.8-0.3,1.2-0.4c0.4-0.1,0.9-0.2,1.4-0.2c0.3,0,0.6-0.1,0.9-0.1c-0.1,0.3-0.1,0.5-0.2,0.8c-0.1,0.4-0.3,0.9-0.6,1.3
			c-0.2,0.4-0.5,0.8-0.8,1.1C108.7,48.9,108.4,49.1,108.1,49.4z"/>
		<path class="st1" d="M135.1,49.8c-0.4,0.2-0.8,0.3-1.1,0.4l0,0c-0.6,0.1-1.2,0.2-1.5,0.1c0,0-0.1-0.1-0.2-0.2
			c-0.1-0.1-0.1-0.3-0.2-0.7c0-0.3-0.1-0.8-0.1-1.3c0-0.3,0-0.7,0-1.1c0-0.4,0.1-0.9,0.1-1.3c0-0.5,0.1-0.9,0.1-1.4
			c0-0.5,0.1-1,0.1-1.4c0-0.4,0.1-0.8,0.1-1.2c0-0.4,0-0.7,0-0.9c0-0.8-0.1-1.5-0.3-2c-0.2-0.6-0.5-1.1-0.8-1.4
			c-0.3-0.4-0.7-0.7-1.2-0.8c-1-0.4-2.2-0.3-3.4,0.3c-0.7,0.4-1.4,1-2,1.8c-0.7,0.8-1.3,1.9-1.9,3.1c-0.2,0.3-0.3,0.7-0.5,1.1
			c0-0.5,0.1-1,0.1-1.5l0.1-2.3c0-0.3,0-0.4,0-0.5c0-0.7-0.2-1.3-0.5-1.6c-0.3-0.3-0.8-0.5-1.3-0.5c-0.2,0-0.5,0-0.8,0.1
			c-0.3,0.1-0.7,0.1-1.1,0.3c-0.4,0.1-0.8,0.2-1.3,0.4c-0.5,0.1-1,0.3-1.5,0.5l-0.4,0.1l0.4,1.7l0.5-0.1c0.4-0.1,0.8-0.2,1.2-0.3
			c0.5-0.1,0.9-0.1,1.1-0.1c0,0,0.1,0,0.1,0.1c0,0,0.1,0.1,0.1,0.3c0,0.2,0.1,0.4,0.1,0.6c0,0.3,0,0.7,0,1.3c0,0.5,0,1.2-0.1,1.9
			l-0.1,2.2c0,0.8-0.1,1.6-0.1,2.4c0,0.8-0.1,1.6-0.1,2.4c0,0.8-0.1,1.5-0.2,2.2l0,0.5l0.8,0l2.6-0.3l0-0.4c0.1-1,0.2-2,0.4-3.1
			c0.2-1,0.5-2,0.8-2.9c0.3-0.9,0.7-1.8,1.1-2.6c0.4-0.8,0.8-1.5,1.2-2.1c0.4-0.6,0.8-1,1.3-1.3c0.8-0.6,1.4-0.5,1.8,0
			c0.2,0.3,0.4,0.8,0.4,1.5c0,0.3,0,0.7-0.1,1.2l-0.2,1.7c-0.1,0.6-0.1,1.3-0.2,2c0,0.7-0.1,1.4-0.1,2.1c0,0.6,0,1.1,0,1.6
			c0,0.5,0.1,1,0.2,1.4c0.1,0.4,0.3,0.8,0.6,1.1c0.3,0.3,0.7,0.4,1.2,0.4c0.4,0,0.8-0.1,1.2-0.2c0.4-0.1,0.9-0.3,1.3-0.5
			c0.4-0.2,0.9-0.4,1.3-0.6c0.4-0.2,0.8-0.5,1-0.7l0.3-0.2l-0.5-1.4L135.1,49.8z"/>
		<path class="st1" d="M143.6,49.8c-0.4,0.2-0.7,0.3-1.1,0.4h0c-0.5,0.1-1,0.2-1.3,0.1c0,0-0.1,0-0.1-0.1c0,0-0.1-0.1-0.2-0.3
			s-0.1-0.4-0.2-0.8c0-0.3-0.1-0.8-0.1-1.3c0-0.5,0-1.1,0-1.9c0-0.5,0-1.1,0-1.8c0-0.7,0.1-1.4,0.1-2.1c0.1-0.7,0.1-1.5,0.2-2.3
			c0.1-0.8,0.2-1.6,0.3-2.4l0.1-0.4l-0.3-0.2c-0.5-0.3-1-0.4-1.6-0.4c-0.2,0-0.3,0-0.5,0c-0.2,0-0.4,0.1-0.6,0.2
			c-0.2,0.1-0.4,0.2-0.5,0.4c-0.1,0.2-0.2,0.5-0.3,0.7c-0.1,0.9-0.1,1.8-0.1,2.6c0,0.9-0.1,1.7-0.1,2.4c0,0.8,0,1.5,0,2.2
			c0,0.7,0,1.3,0,1.8c0,0.9,0,1.7,0.1,2.3c0,0.7,0.1,1.2,0.2,1.6c0.1,0.5,0.2,0.8,0.3,1.1c0.1,0.3,0.3,0.6,0.5,0.7
			c0.2,0.2,0.4,0.3,0.7,0.4c0.2,0,0.4,0.1,0.6,0.1c0.3,0,0.7-0.1,1.2-0.2c0.4-0.1,0.9-0.3,1.3-0.5c0.4-0.2,0.9-0.4,1.3-0.6
			c0.4-0.2,0.8-0.5,1-0.7l0.3-0.2l-0.5-1.4L143.6,49.8z"/>
		<path class="st1" d="M138.3,32.2L138.3,32.2c0.2,0.2,0.4,0.4,0.6,0.5c0.3,0.1,0.6,0.2,0.9,0.2c0.3,0,0.7-0.1,1-0.2
			c0.3-0.2,0.5-0.4,0.7-0.6c0.2-0.2,0.3-0.5,0.4-0.8c0.1-0.3,0.2-0.6,0.2-0.9c0-0.3,0-0.6-0.1-0.8c-0.1-0.3-0.2-0.5-0.4-0.7
			c-0.2-0.2-0.4-0.4-0.7-0.5c-0.5-0.2-1.1-0.3-1.6,0c-0.3,0.1-0.5,0.3-0.7,0.5c-0.2,0.2-0.4,0.5-0.5,0.8c-0.1,0.3-0.2,0.7-0.2,1
			c0,0.3,0,0.6,0.1,0.8C138,31.8,138.1,32,138.3,32.2z"/>
		<path class="st1" d="M155.6,37.2L155.6,37.2c-0.4-0.3-0.9-0.5-1.5-0.7c-1.3-0.4-2.8-0.3-4.1,0.2c-0.7,0.3-1.4,0.6-2,1.1
			c-0.6,0.5-1.1,1-1.6,1.7c-0.5,0.6-0.9,1.3-1.2,2c-0.3,0.7-0.6,1.5-0.7,2.3c-0.2,0.8-0.3,1.6-0.3,2.3c0,0.6,0.1,1.2,0.2,1.7
			c0.1,0.6,0.3,1.1,0.5,1.6c0.2,0.5,0.5,1,0.9,1.5c0.3,0.5,0.8,0.9,1.2,1.2c0.5,0.3,1,0.6,1.6,0.8c0.6,0.2,1.2,0.3,1.9,0.3
			c1.2,0,2.4-0.3,3.4-0.9c1-0.6,1.9-1.5,2.7-2.7l0.1-0.1v-0.2c0-0.1,0-0.3-0.2-0.5c-0.1-0.1-0.1-0.1-0.2-0.2
			c-0.1-0.1-0.2-0.1-0.3-0.2c-0.1,0-0.1-0.1-0.2-0.1l-0.4-0.2l-0.3,0.3c-0.6,0.7-1.2,1.2-1.8,1.5c-1.1,0.6-2.2,0.6-3.2,0.1
			c-0.5-0.3-0.9-0.6-1.2-1.1c-0.4-0.5-0.7-1.1-0.9-1.8c-0.2-0.7-0.3-1.5-0.3-2.3c0-0.5,0-1,0.1-1.5c0.1-0.5,0.2-1,0.3-1.5
			c0.1-0.5,0.3-0.9,0.5-1.3c0.2-0.4,0.5-0.8,0.8-1.1c0.3-0.3,0.6-0.5,1-0.7c0.6-0.3,1.5-0.3,2.1-0.1c0.2,0.1,0.4,0.2,0.5,0.3
			c0.1,0.1,0.2,0.3,0.3,0.5c0.1,0.2,0.1,0.4,0.1,0.6c0,0.3-0.1,0.6-0.2,1l-0.1,0.2l0.2,0.5l0.2,0.1c0.2,0.1,0.4,0.1,0.6,0.2
			c0.5,0.1,1,0.1,1.5-0.1c0.3-0.1,0.5-0.3,0.7-0.5c0.2-0.2,0.4-0.5,0.5-0.7c0.1-0.3,0.2-0.6,0.2-1c0-0.5-0.1-1-0.4-1.5
			C156.4,37.9,156,37.5,155.6,37.2z"/>
		<path class="st1" d="M172.6,50.3c-1.2,0.7-2.1,0.7-2.6,0c-0.3-0.4-0.5-1.1-0.5-2c0-0.6,0-1.3,0.1-1.9c0-0.6,0.1-1.3,0.1-1.9
			c0-0.6,0.1-1.2,0.1-1.8c0-0.6,0.1-1.1,0.1-1.6c0-0.7-0.1-1.4-0.2-2c-0.2-0.6-0.4-1.1-0.8-1.6c-0.4-0.4-0.9-0.8-1.5-1
			c-0.9-0.3-2.1-0.5-3.5-0.2c-0.5,0.1-1,0.2-1.5,0.4c-0.5,0.2-1,0.4-1.4,0.6c-0.5,0.3-0.9,0.6-1.3,0.9c-0.4,0.3-0.7,0.7-0.9,1.1
			c-0.2,0.4-0.4,0.9-0.4,1.4c0,0.3,0.1,0.6,0.2,0.9c0.1,0.3,0.3,0.5,0.5,0.7c0.2,0.2,0.4,0.3,0.7,0.4c0.7,0.2,1.5,0.2,2.3-0.2
			l0.2-0.1l0.2-0.6l-0.2-0.2c-0.2-0.3-0.4-0.6-0.5-0.9c-0.1-0.3-0.2-0.6-0.2-0.9c0-0.2,0-0.4,0.1-0.6c0.1-0.2,0.2-0.3,0.3-0.4
			c0.2-0.1,0.4-0.3,0.7-0.3c0.5-0.2,1.3-0.2,2.1,0c0.3,0.1,0.6,0.3,0.8,0.5c0.2,0.2,0.4,0.5,0.6,0.8c0.2,0.3,0.2,0.8,0.2,1.2
			c0,0.5,0,0.9,0,1.3c0,0.3,0,0.6-0.1,0.8c-0.6,0-1.3,0.1-1.9,0.1c-0.8,0.1-1.5,0.2-2.2,0.5c-0.7,0.2-1.3,0.5-1.9,0.8
			c-0.6,0.3-1.1,0.7-1.6,1.1c-0.4,0.4-0.8,1-1.1,1.5c-0.3,0.6-0.4,1.2-0.4,1.9c0,0.5,0.1,1,0.3,1.5c0.2,0.5,0.4,0.9,0.8,1.2
			c0.3,0.3,0.7,0.6,1.2,0.8c0.5,0.2,1,0.3,1.5,0.3c0.7,0,1.3-0.2,1.9-0.5c0.6-0.3,1.1-0.7,1.6-1.2c0.5-0.5,1-1,1.4-1.7
			c0.1-0.1,0.1-0.2,0.2-0.2c0,0.4,0.1,0.7,0.2,1.1c0.2,0.5,0.4,1,0.8,1.3c0.3,0.4,0.7,0.6,1.2,0.8c1,0.4,2.3,0.3,3.4-0.1
			c0.6-0.3,1.2-0.7,1.7-1.2l0.3-0.3L173,50L172.6,50.3z M163.8,49.4c-0.3,0.2-0.6,0.4-0.9,0.5c-0.5,0.2-1,0.2-1.3,0.1
			c-0.1-0.1-0.2-0.2-0.3-0.3c-0.1-0.1-0.2-0.3-0.2-0.5c-0.1-0.2-0.1-0.4-0.1-0.7c0-0.4,0.1-0.8,0.2-1.1c0.1-0.3,0.3-0.6,0.6-0.8
			c0.2-0.2,0.5-0.4,0.9-0.6c0.4-0.2,0.8-0.3,1.2-0.4c0.4-0.1,0.9-0.2,1.4-0.2c0.3,0,0.6-0.1,0.9-0.1c-0.1,0.3-0.1,0.5-0.2,0.8
			c-0.1,0.4-0.3,0.9-0.6,1.3c-0.2,0.4-0.5,0.8-0.8,1.1C164.4,48.9,164.1,49.1,163.8,49.4z"/>
		<path class="st1" d="M181.1,49.6l-0.5,0.2c-0.4,0.2-0.7,0.3-1.1,0.4c-0.5,0.1-1,0.2-1.3,0.1c0,0-0.1,0-0.1-0.1
			c0,0-0.1-0.1-0.1-0.3c-0.1-0.2-0.1-0.4-0.1-0.7c0-0.3-0.1-0.7-0.1-1.2c0-0.5,0-1.1,0-1.8c0-1.1,0-2.3,0.1-3.5
			c0-1.2,0.1-2.4,0.2-3.7c0.1-1.3,0.2-2.5,0.3-3.8c0.1-1.3,0.2-2.6,0.3-3.9c0.1-1.3,0.3-2.6,0.4-3.8c0.1-1.3,0.3-2.5,0.4-3.7l0-0.4
			l-0.3-0.2c-0.8-0.4-1.5-0.5-2.2-0.3c-0.2,0-0.4,0.1-0.6,0.2c-0.2,0.1-0.4,0.3-0.5,0.4c-0.2,0.2-0.2,0.4-0.2,0.7
			c0,0.7-0.1,1.6-0.2,2.6l-0.2,3.1c-0.1,1.1-0.1,2.2-0.2,3.4c-0.1,1.2-0.1,2.3-0.2,3.5c-0.1,1.1-0.1,2.3-0.2,3.3l-0.1,3
			c0,0.9-0.1,1.7-0.1,2.4c0,0.7,0,1.2,0,1.6c0,1,0,1.9,0,2.6c0,0.7,0.1,1.3,0.2,1.8c0.1,0.5,0.4,0.9,0.7,1.2
			c0.3,0.3,0.7,0.4,1.2,0.4c0.3,0,0.7-0.1,1.2-0.2c0.4-0.1,0.9-0.3,1.3-0.5c0.4-0.2,0.9-0.4,1.3-0.6c0.4-0.2,0.8-0.5,1-0.7l0.3-0.2
			L181.1,49.6z"/>
	</g>
</g>
<g id="designed_by_freepik">
</g>
</svg>
